<svg viewBox="0 0 14 14">
   <path fill="red" d="M11.9599 7.66674C11.8133 7.66674 11.6599 7.62007 11.5133 7.58674C11.2163 7.52129 10.9244 7.4344 10.6399 7.32674C10.3307 7.21423 9.99071 7.22007 9.68548 7.34315C9.38026 7.46622 9.13133 7.69783 8.98661 7.99341L8.83994 8.29341C8.19061 7.93219 7.59393 7.48356 7.06661 6.96007C6.54312 6.43275 6.09449 5.83607 5.73328 5.18674L6.01328 5.00007C6.30886 4.85535 6.54047 4.60643 6.66354 4.3012C6.78662 3.99598 6.79246 3.65602 6.67995 3.34674C6.57409 3.06169 6.48724 2.76994 6.41995 2.47341C6.38661 2.32674 6.35995 2.17341 6.33995 2.02007C6.25899 1.55049 6.01303 1.12524 5.64636 0.820901C5.27969 0.516566 4.81641 0.353147 4.33994 0.360075H2.33995C2.05263 0.357377 1.76811 0.416617 1.50575 0.533762C1.24339 0.650906 1.00935 0.823205 0.819565 1.03893C0.629779 1.25465 0.488702 1.50874 0.405937 1.78388C0.323173 2.05903 0.300665 2.34878 0.339945 2.63341C0.695104 5.42633 1.97063 8.02133 3.96505 10.0085C5.95946 11.9957 8.55908 13.2617 11.3533 13.6067H11.6066C12.0982 13.6075 12.5729 13.4271 12.9399 13.1001C13.1509 12.9114 13.3193 12.6802 13.4343 12.4216C13.5492 12.163 13.6079 11.883 13.6066 11.6001V9.60007C13.5984 9.137 13.4298 8.69111 13.1295 8.33852C12.8292 7.98593 12.4158 7.74849 11.9599 7.66674ZM12.2933 11.6667C12.2932 11.7614 12.2729 11.8549 12.2338 11.9412C12.1947 12.0274 12.1377 12.1043 12.0666 12.1667C11.9921 12.2311 11.905 12.2791 11.8109 12.3078C11.7167 12.3365 11.6176 12.3452 11.5199 12.3334C9.02321 12.0133 6.7041 10.8711 4.92842 9.08693C3.15274 7.3028 2.02155 4.9783 1.71328 2.48007C1.70267 2.38242 1.71197 2.28363 1.74061 2.18967C1.76926 2.09571 1.81666 2.00853 1.87995 1.93341C1.94242 1.8623 2.01932 1.8053 2.10553 1.76622C2.19174 1.72714 2.28529 1.70686 2.37995 1.70674H4.37994C4.53498 1.70329 4.68636 1.75399 4.80804 1.85012C4.92972 1.94625 5.01408 2.08179 5.04661 2.23341C5.07328 2.41563 5.10661 2.59563 5.14661 2.77341C5.22362 3.12484 5.32612 3.47019 5.45328 3.80674L4.51994 4.24007C4.44014 4.27669 4.36836 4.32871 4.30872 4.39314C4.24907 4.45757 4.20275 4.53315 4.17239 4.61554C4.14204 4.69792 4.12826 4.7855 4.13184 4.87322C4.13543 4.96095 4.15631 5.0471 4.19328 5.12674C5.15275 7.18191 6.80477 8.83394 8.85994 9.79341C9.02225 9.86009 9.2043 9.86009 9.36661 9.79341C9.44975 9.76367 9.52616 9.71771 9.59139 9.6582C9.65662 9.59869 9.70939 9.52681 9.74661 9.44674L10.1599 8.51341C10.5046 8.63666 10.8563 8.73907 11.2133 8.82007C11.3911 8.86007 11.5711 8.89341 11.7533 8.92007C11.9049 8.9526 12.0404 9.03696 12.1366 9.15864C12.2327 9.28033 12.2834 9.43171 12.2799 9.58674L12.2933 11.6667Z"/>
</svg>
